<svg width="64" height="64" viewBox="0 0 64 64" fill="none" xmlns="http://www.w3.org/2000/svg">
<path d="M17.6402 56C16.4135 56 15.3895 55.5893 14.5682 54.768C13.7468 53.9467 13.3353 52.9218 13.3335 51.6933V12.3067C13.3335 11.08 13.7451 10.056 14.5682 9.23467C15.3913 8.41333 16.4153 8.00178 17.6402 8H36.8775C37.4517 8 38.0099 8.11556 38.5522 8.34667C39.0944 8.57778 39.5584 8.888 39.9442 9.27733L49.3868 18.72C49.7726 19.1058 50.0819 19.5698 50.3148 20.112C50.5477 20.6542 50.6642 21.2124 50.6642 21.7867V51.6907C50.6642 52.9173 50.2535 53.9413 49.4322 54.7627C48.6108 55.584 47.5868 55.9964 46.3602 56H17.6402ZM37.3335 19.1787C37.3335 19.7973 37.5379 20.3111 37.9468 20.72C38.3557 21.1289 38.8695 21.3333 39.4882 21.3333H48.0002L37.3335 10.6667V19.1787Z" fill="#969BC8"/>
</svg>
