<svg width="64" height="64" viewBox="0 0 64 64" fill="none" xmlns="http://www.w3.org/2000/svg">
<path d="M17.0639 31.76H9.66992V47.7802H17.0639V31.76Z" fill="#969BC8"/>
<path d="M29.3871 31.76H21.9932V47.7802H29.3871V31.76Z" fill="#969BC8"/>
<path d="M41.7103 31.76H34.3164V47.7802H41.7103V31.76Z" fill="#969BC8"/>
<path d="M54.0336 31.76H46.6396V47.7802H54.0336V31.76Z" fill="#969BC8"/>
<path d="M8.4375 25.5984V28.063C8.4375 28.3899 8.56733 28.7033 8.79844 28.9344C9.02954 29.1655 9.34299 29.2954 9.66982 29.2954H17.0638C17.3906 29.2954 17.704 29.1655 17.9351 28.9344C18.1663 28.7033 18.2961 28.3899 18.2961 28.063V25.5984H8.4375Z" fill="#969BC8"/>
<path d="M20.7607 25.5984V28.063C20.7607 28.3899 20.8906 28.7033 21.1217 28.9344C21.3528 29.1655 21.6662 29.2954 21.9931 29.2954H29.387C29.7138 29.2954 30.0273 29.1655 30.2584 28.9344C30.4895 28.7033 30.6193 28.3899 30.6193 28.063V25.5984H20.7607Z" fill="#969BC8"/>
<path d="M33.084 25.5984V28.063C33.084 28.3899 33.2138 28.7033 33.4449 28.9344C33.676 29.1655 33.9895 29.2954 34.3163 29.2954H41.7102C42.0371 29.2954 42.3505 29.1655 42.5816 28.9344C42.8127 28.7033 42.9426 28.3899 42.9426 28.063V25.5984H33.084Z" fill="#969BC8"/>
<path d="M45.4072 25.5984V28.063C45.4072 28.3899 45.5371 28.7033 45.7682 28.9344C45.9993 29.1655 46.3127 29.2954 46.6395 29.2954H54.0335C54.3603 29.2954 54.6738 29.1655 54.9049 28.9344C55.136 28.7033 55.2658 28.3899 55.2658 28.063V25.5984H45.4072Z" fill="#969BC8"/>
<path d="M55.2661 50.1611H8.43779C7.0766 50.1611 5.97314 51.2646 5.97314 52.6258V55.0904C5.97314 56.4516 7.0766 57.5551 8.43779 57.5551H55.2661C56.6273 57.5551 57.7307 56.4516 57.7307 55.0904V52.6258C57.7307 51.2646 56.6273 50.1611 55.2661 50.1611Z" fill="#969BC8"/>
<path d="M57.2734 15.4564L32.4754 7.23678C31.9693 7.06918 31.4226 7.06918 30.9165 7.23678L6.42038 15.4564C5.93116 15.6208 5.50588 15.9346 5.20452 16.3535C4.90317 16.7725 4.74094 17.2755 4.74072 17.7916V20.6691C4.74072 21.3228 5.00039 21.9497 5.4626 22.4119C5.92481 22.8741 6.5517 23.1338 7.20537 23.1338H56.4983C57.152 23.1338 57.7789 22.8741 58.2411 22.4119C58.7033 21.9497 58.9629 21.3228 58.9629 20.6691V17.7953C58.9628 17.2774 58.7995 16.7726 58.4962 16.3528C58.1929 15.9329 57.7651 15.6193 57.2734 15.4564Z" fill="#969BC8"/>
</svg>
