<svg width="64" height="64" viewBox="0 0 64 64" fill="none" xmlns="http://www.w3.org/2000/svg">
<path d="M32.014 13.023C29.9511 10.4515 24.8882 8.17383 19.2631 8.17383C11.8174 8.17383 5.81738 12.0047 4.34424 15.5944V53.0138C4.34424 55.0493 5.68367 55.8253 7.12938 55.8253C8.30881 55.8253 8.97738 55.4778 9.70081 54.9155C11.2277 53.6024 14.3088 51.8344 19.2642 51.8344C24.1922 51.8344 27.6471 53.5487 28.9865 54.7544C29.6837 55.3167 30.5408 55.8264 32.014 55.8264C33.4597 55.8264 34.2905 55.2641 35.014 54.7544C36.4334 53.6298 39.8082 51.8355 44.7374 51.8355C49.6917 51.8355 52.7991 53.6298 54.2997 54.9155C55.0231 55.4778 55.6928 55.8264 56.8711 55.8264C58.318 55.8264 59.6562 55.0493 59.6562 53.0138V15.5944C58.1831 12.0047 52.1831 8.17383 44.7374 8.17383C39.1122 8.17383 34.0494 10.4515 32.014 13.023ZM8.65624 16.8801C9.27338 15.2184 13.1568 12.2184 19.2642 12.2184C25.3442 12.2184 29.3088 15.2458 29.8437 16.8801V50.7635C27.2997 48.8618 23.4151 47.7898 19.2642 47.7898C15.0848 47.7898 11.2014 48.8618 8.65624 50.871V16.8801ZM55.3442 16.8801V50.871C52.7991 48.8618 48.9157 47.7898 44.7374 47.7898C40.5854 47.7898 36.7008 48.8618 34.1568 50.7635V16.8801C34.6917 15.2458 38.6562 12.2184 44.7374 12.2184C50.8437 12.2184 54.7294 15.2184 55.3442 16.8801Z" fill="#969BC8"/>
</svg>
