<svg width="28" height="28" viewBox="0 0 28 28" fill="none" xmlns="http://www.w3.org/2000/svg">
<path d="M15 20V12H11V14H13V20H10V22H18V20H15ZM14 6C13.7033 6 13.4133 6.08797 13.1666 6.2528C12.92 6.41762 12.7277 6.65189 12.6142 6.92597C12.5006 7.20006 12.4709 7.50166 12.5288 7.79264C12.5867 8.08361 12.7296 8.35088 12.9393 8.56066C13.1491 8.77044 13.4164 8.9133 13.7074 8.97118C13.9983 9.02906 14.2999 8.99935 14.574 8.88582C14.8481 8.77229 15.0824 8.58003 15.2472 8.33335C15.412 8.08668 15.5 7.79667 15.5 7.5C15.5 7.10218 15.342 6.72064 15.0607 6.43934C14.7794 6.15804 14.3978 6 14 6Z" fill="#616391"/>
<path d="M14 28C11.2311 28 8.52431 27.1789 6.22202 25.6406C3.91973 24.1022 2.12532 21.9157 1.06569 19.3576C0.00606596 16.7994 -0.271181 13.9845 0.269012 11.2687C0.809205 8.55301 2.14258 6.05845 4.10051 4.10051C6.05845 2.14258 8.55301 0.809205 11.2687 0.269012C13.9845 -0.271181 16.7994 0.00606596 19.3576 1.06569C21.9157 2.12532 24.1022 3.91973 25.6406 6.22202C27.1789 8.52431 28 11.2311 28 14C28 17.713 26.525 21.274 23.8995 23.8995C21.274 26.525 17.713 28 14 28ZM14 2.00001C11.6266 2.00001 9.30655 2.70379 7.33316 4.02237C5.35977 5.34095 3.8217 7.21509 2.91345 9.40781C2.0052 11.6005 1.76756 14.0133 2.23058 16.3411C2.69361 18.6689 3.83649 20.8071 5.51472 22.4853C7.19295 24.1635 9.33115 25.3064 11.6589 25.7694C13.9867 26.2325 16.3995 25.9948 18.5922 25.0866C20.7849 24.1783 22.6591 22.6402 23.9776 20.6668C25.2962 18.6935 26 16.3734 26 14C26 10.8174 24.7357 7.76516 22.4853 5.51472C20.2349 3.26429 17.1826 2.00001 14 2.00001Z" fill="#616391"/>
</svg>
