<svg width="127" height="48" viewBox="0 0 127 48" fill="none" xmlns="http://www.w3.org/2000/svg">
<path d="M12.7979 23.8201H7.25244V35.8352H12.7979V23.8201Z" fill="white"/>
<path d="M22.0406 23.8201H16.4951V35.8352H22.0406V23.8201Z" fill="white"/>
<path d="M31.2828 23.8201H25.7373V35.8352H31.2828V23.8201Z" fill="white"/>
<path d="M40.5254 23.8201H34.98V35.8352H40.5254V23.8201Z" fill="white"/>
<path d="M6.32861 19.1989V21.0473C6.32861 21.2925 6.42599 21.5275 6.59932 21.7009C6.77265 21.8742 7.00773 21.9716 7.25286 21.9716H12.7983C13.0434 21.9716 13.2785 21.8742 13.4518 21.7009C13.6252 21.5275 13.7226 21.2925 13.7226 21.0473V19.1989H6.32861Z" fill="white"/>
<path d="M15.5708 19.1989V21.0473C15.5708 21.2925 15.6682 21.5275 15.8415 21.7009C16.0148 21.8742 16.2499 21.9716 16.495 21.9716H22.0405C22.2856 21.9716 22.5207 21.8742 22.694 21.7009C22.8674 21.5275 22.9647 21.2925 22.9647 21.0473V19.1989H15.5708Z" fill="white"/>
<path d="M24.8135 19.1989V21.0473C24.8135 21.2925 24.9109 21.5275 25.0842 21.7009C25.2575 21.8742 25.4926 21.9716 25.7377 21.9716H31.2832C31.5283 21.9716 31.7634 21.8742 31.9367 21.7009C32.11 21.5275 32.2074 21.2925 32.2074 21.0473V19.1989H24.8135Z" fill="white"/>
<path d="M34.0557 19.1989V21.0473C34.0557 21.2925 34.153 21.5275 34.3264 21.7009C34.4997 21.8742 34.7348 21.9716 34.9799 21.9716H40.5254C40.7705 21.9716 41.0056 21.8742 41.1789 21.7009C41.3522 21.5275 41.4496 21.2925 41.4496 21.0473V19.1989H34.0557Z" fill="white"/>
<path d="M41.4497 37.6208H6.32847C5.30758 37.6208 4.47998 38.4484 4.47998 39.4693V41.3178C4.47998 42.3387 5.30758 43.1663 6.32847 43.1663H41.4497C42.4706 43.1663 43.2982 42.3387 43.2982 41.3178V39.4693C43.2982 38.4484 42.4706 37.6208 41.4497 37.6208Z" fill="white"/>
<path d="M42.9552 11.5923L24.3567 5.42765C23.9771 5.30195 23.5671 5.30195 23.1875 5.42765L4.81541 11.5923C4.44849 11.7156 4.12953 11.951 3.90351 12.2652C3.6775 12.5795 3.55583 12.9567 3.55566 13.3438V15.5019C3.55566 15.9921 3.75041 16.4623 4.09707 16.809C4.44373 17.1556 4.9139 17.3504 5.40415 17.3504H42.3738C42.8641 17.3504 43.3343 17.1556 43.6809 16.809C44.0276 16.4623 44.2223 15.9921 44.2223 15.5019V13.3466C44.2222 12.9581 44.0998 12.5795 43.8723 12.2646C43.6448 11.9498 43.3239 11.7145 42.9552 11.5923Z" fill="white"/>
<path d="M72.7539 10.6094V21H70.457V13.6719L67.7773 21H65.3711L62.6914 13.6719V21H60.3945V10.6094H63.8398L66.6016 18.1289L69.3359 10.6094H72.7539ZM83.3633 12.7969L80.7656 20.6992C80.401 21.8112 79.9544 22.6133 79.4258 23.1055C78.8971 23.6159 78.2318 23.8711 77.4297 23.8711C76.6094 23.8711 75.944 23.625 75.4336 23.1328C74.9414 22.6406 74.6953 21.9935 74.6953 21.1914C74.6953 20.4258 74.9779 19.7331 75.543 19.1133H76.6914L74.2578 12.7969H76.6094L78.7695 19.1133H79.207L81.0391 12.7969H83.3633ZM77.4297 22.0938C77.9583 22.0938 78.332 21.7383 78.5508 21.0273L78.6602 20.6719H76.6914C76.6003 20.8906 76.5547 21.0911 76.5547 21.2734C76.5547 21.5104 76.6367 21.7018 76.8008 21.8477C76.9648 22.0117 77.1745 22.0938 77.4297 22.0938ZM89.543 16.7617C89.9622 16.9258 90.2904 17.1719 90.5273 17.5C90.7643 17.8281 90.8828 18.2109 90.8828 18.6484C90.8828 19.3776 90.5365 19.9792 89.8438 20.4531C89.151 20.9089 88.2669 21.1367 87.1914 21.1367C86.3529 21.1367 85.6055 20.9635 84.9492 20.6172C84.3112 20.2708 83.8281 19.7695 83.5 19.1133L85.168 18.1836C85.5872 18.9857 86.2708 19.3867 87.2188 19.3867C87.6745 19.3867 88.0299 19.3047 88.2852 19.1406C88.5586 18.9766 88.6953 18.7487 88.6953 18.457C88.6953 18.2018 88.5859 18.0013 88.3672 17.8555C88.1484 17.6914 87.8385 17.6094 87.4375 17.6094H86.3164V16.1055H87.3828C87.6927 16.1055 87.9479 16.0326 88.1484 15.8867C88.349 15.7227 88.4492 15.513 88.4492 15.2578C88.4492 14.9844 88.3398 14.7747 88.1211 14.6289C87.9023 14.4831 87.5924 14.4102 87.1914 14.4102C86.3346 14.4102 85.6784 14.7747 85.2227 15.5039L83.7734 14.3828C84.138 13.8359 84.6302 13.4167 85.25 13.125C85.8698 12.8151 86.5625 12.6602 87.3281 12.6602C88.2943 12.6602 89.069 12.8789 89.6523 13.3164C90.2539 13.7539 90.5547 14.3372 90.5547 15.0664C90.5547 15.832 90.2174 16.3971 89.543 16.7617ZM93.9453 17.6094C94.0547 18.1562 94.2917 18.5846 94.6562 18.8945C95.0391 19.1862 95.5221 19.332 96.1055 19.332C97.0352 19.332 97.7826 19.0221 98.3477 18.4023L99.6875 19.7148C98.7943 20.6628 97.5911 21.1367 96.0781 21.1367C94.6927 21.1367 93.6263 20.7448 92.8789 19.9609C92.1497 19.1771 91.7852 18.1562 91.7852 16.8984C91.7852 15.6406 92.1589 14.6198 92.9062 13.8359C93.6719 13.0521 94.6836 12.6602 95.9414 12.6602C97.181 12.6602 98.1654 13.043 98.8945 13.8086C99.6419 14.5742 100.016 15.6042 100.016 16.8984C100.016 17.1172 99.9883 17.3542 99.9336 17.6094H93.9453ZM95.9414 14.4102C95.431 14.4102 95.0026 14.556 94.6562 14.8477C94.3281 15.1211 94.1003 15.513 93.9727 16.0234H97.8281C97.7188 15.4948 97.5 15.0938 97.1719 14.8203C96.862 14.5469 96.4518 14.4102 95.9414 14.4102ZM101.793 12.7969H103.98V21H101.793V12.7969ZM100.18 9.89844H102.422V11.7578H100.18V9.89844ZM103.352 9.89844H105.594V11.7578H103.352V9.89844ZM69.1719 27.6094L66.3555 35.2383C66.0091 36.2227 65.5443 36.9518 64.9609 37.4258C64.3958 37.8997 63.7031 38.1367 62.8828 38.1367C62.026 38.1367 61.3333 37.8815 60.8047 37.3711C60.276 36.8607 60.0117 36.1953 60.0117 35.375C60.0117 34.4818 60.3216 33.7526 60.9414 33.1875H61.9531L59.082 27.6094H61.6523L64.3047 33.1875H64.8789L66.6836 27.6094H69.1719ZM62.9375 36.3047C63.5026 36.3047 63.9128 35.9857 64.168 35.3477L64.3594 34.8008H62.1992C62.0898 34.9648 62.0352 35.1562 62.0352 35.375C62.0352 35.6667 62.1081 35.8945 62.2539 36.0586C62.418 36.2227 62.6458 36.3047 62.9375 36.3047ZM78.0312 36.0859V38C77.7943 38.0182 77.4753 38.0273 77.0742 38.0273C75.7982 38.0273 75.1602 37.4349 75.1602 36.25V34.8008H72.6172V38H70.4297V27.0625H72.6172V32.8047H73.6836L75.6523 29.7969H77.9492L75.8711 32.8047H77.2656V35.6758C77.2656 35.8034 77.3021 35.9036 77.375 35.9766C77.4479 36.0495 77.5482 36.0859 77.6758 36.0859H78.0312ZM84.3477 29.6602C85.4049 29.6602 86.2526 30.043 86.8906 30.8086C87.5286 31.5742 87.8477 32.6042 87.8477 33.8984C87.8477 35.1745 87.5195 36.2044 86.8633 36.9883C86.2253 37.7539 85.3867 38.1367 84.3477 38.1367C83.3268 38.1367 82.4792 37.7721 81.8047 37.043V40.7344H79.6172V29.7969H81.5859L81.6953 30.9453C82.3516 30.0885 83.2357 29.6602 84.3477 29.6602ZM83.6641 36.332C84.2839 36.332 84.7669 36.1133 85.1133 35.6758C85.4596 35.2383 85.6328 34.6458 85.6328 33.8984C85.6328 33.151 85.4596 32.5586 85.1133 32.1211C84.7669 31.6836 84.2839 31.4648 83.6641 31.4648C83.0443 31.4648 82.5612 31.6836 82.2148 32.1211C81.8867 32.5404 81.7227 33.1328 81.7227 33.8984C81.7227 34.6641 81.8867 35.2656 82.2148 35.7031C82.5612 36.1224 83.0443 36.332 83.6641 36.332ZM96.8164 36.1133V38C96.5977 38.0365 96.3333 38.0547 96.0234 38.0547C95.513 38.0547 95.112 37.9544 94.8203 37.7539C94.5469 37.5534 94.3737 37.2435 94.3008 36.8242C94.0091 37.2253 93.6081 37.5443 93.0977 37.7812C92.6055 38.0182 92.0586 38.1367 91.457 38.1367C90.6549 38.1367 90.0078 37.918 89.5156 37.4805C89.0234 37.043 88.7773 36.4688 88.7773 35.7578C88.7773 34.8099 89.1055 34.1536 89.7617 33.7891C90.418 33.4245 91.2656 33.1784 92.3047 33.0508C92.8516 32.9779 93.2617 32.8958 93.5352 32.8047C93.8268 32.6953 93.9727 32.5312 93.9727 32.3125C93.9727 32.0573 93.8359 31.8477 93.5625 31.6836C93.3073 31.5195 92.9518 31.4375 92.4961 31.4375C91.6393 31.4375 90.8919 31.7565 90.2539 32.3945L88.9414 31.0547C89.9258 30.125 91.1562 29.6602 92.6328 29.6602C93.6901 29.6602 94.5195 29.9062 95.1211 30.3984C95.7227 30.8906 96.0234 31.5651 96.0234 32.4219V35.6484C96.0234 35.9583 96.1784 36.1133 96.4883 36.1133H96.8164ZM91.9492 36.4141C92.4961 36.4141 92.9609 36.2591 93.3438 35.9492C93.7266 35.6393 93.918 35.2565 93.918 34.8008V34.0898C93.7721 34.181 93.5716 34.2539 93.3164 34.3086C93.0794 34.3633 92.8151 34.418 92.5234 34.4727C91.9766 34.5638 91.5664 34.6823 91.293 34.8281C91.0195 34.9557 90.8828 35.1927 90.8828 35.5391C90.8828 35.8125 90.974 36.0312 91.1562 36.1953C91.3385 36.3411 91.6029 36.4141 91.9492 36.4141ZM98.5938 29.7969H100.781V38H98.5938V29.7969ZM96.9805 26.8984H99.2227V28.7578H96.9805V26.8984ZM100.152 26.8984H102.395V28.7578H100.152V26.8984ZM108.574 29.7969H110.762V38H108.574V34.8008H105.348V38H103.16V29.7969H105.348V32.832H108.574V29.7969ZM118.5 29.7969H120.66V38H118.527V32.9414L115.164 38H113.004V29.7969H115.137V34.8555L118.5 29.7969Z" fill="white"/>
</svg>
