<svg width="64" height="64" viewBox="0 0 64 64" fill="none" xmlns="http://www.w3.org/2000/svg">
<path d="M17.0639 31.7601H9.66992V47.7803H17.0639V31.7601Z" fill="#969BC8"/>
<path d="M29.3871 31.7601H21.9932V47.7803H29.3871V31.7601Z" fill="#969BC8"/>
<path d="M41.7103 31.7601H34.3164V47.7803H41.7103V31.7601Z" fill="#969BC8"/>
<path d="M54.0336 31.7601H46.6396V47.7803H54.0336V31.7601Z" fill="#969BC8"/>
<path d="M8.4375 25.5985V28.0632C8.4375 28.39 8.56733 28.7034 8.79844 28.9345C9.02954 29.1656 9.34299 29.2955 9.66982 29.2955H17.0638C17.3906 29.2955 17.704 29.1656 17.9351 28.9345C18.1663 28.7034 18.2961 28.39 18.2961 28.0632V25.5985H8.4375Z" fill="#969BC8"/>
<path d="M20.7607 25.5985V28.0632C20.7607 28.39 20.8906 28.7034 21.1217 28.9345C21.3528 29.1656 21.6662 29.2955 21.9931 29.2955H29.387C29.7138 29.2955 30.0273 29.1656 30.2584 28.9345C30.4895 28.7034 30.6193 28.39 30.6193 28.0632V25.5985H20.7607Z" fill="#969BC8"/>
<path d="M33.084 25.5985V28.0632C33.084 28.39 33.2138 28.7034 33.4449 28.9345C33.676 29.1656 33.9895 29.2955 34.3163 29.2955H41.7102C42.0371 29.2955 42.3505 29.1656 42.5816 28.9345C42.8127 28.7034 42.9426 28.39 42.9426 28.0632V25.5985H33.084Z" fill="#969BC8"/>
<path d="M45.4072 25.5985V28.0632C45.4072 28.39 45.5371 28.7034 45.7682 28.9345C45.9993 29.1656 46.3127 29.2955 46.6395 29.2955H54.0335C54.3603 29.2955 54.6738 29.1656 54.9049 28.9345C55.136 28.7034 55.2658 28.39 55.2658 28.0632V25.5985H45.4072Z" fill="#969BC8"/>
<path d="M55.2661 50.1611H8.43779C7.0766 50.1611 5.97314 51.2646 5.97314 52.6258V55.0904C5.97314 56.4516 7.0766 57.5551 8.43779 57.5551H55.2661C56.6273 57.5551 57.7307 56.4516 57.7307 55.0904V52.6258C57.7307 51.2646 56.6273 50.1611 55.2661 50.1611Z" fill="#969BC8"/>
<path d="M57.2734 15.4565L32.4754 7.23691C31.9693 7.06931 31.4226 7.06931 30.9165 7.23691L6.42038 15.4565C5.93116 15.6209 5.50588 15.9347 5.20452 16.3537C4.90317 16.7726 4.74094 17.2757 4.74072 17.7918V20.6692C4.74072 21.3229 5.00039 21.9498 5.4626 22.412C5.92481 22.8742 6.5517 23.1339 7.20537 23.1339H56.4983C57.152 23.1339 57.7789 22.8742 58.2411 22.412C58.7033 21.9498 58.9629 21.3229 58.9629 20.6692V17.7955C58.9628 17.2775 58.7995 16.7728 58.4962 16.3529C58.1929 15.933 57.7651 15.6194 57.2734 15.4565Z" fill="#969BC8"/>
</svg>
