<svg width="64" height="64" viewBox="0 0 64 64" fill="none" xmlns="http://www.w3.org/2000/svg">
<path d="M32 27C34.6522 27 37.1957 25.9464 39.0711 24.0711C40.9464 22.1957 42 19.6522 42 17C42 14.3478 40.9464 11.8043 39.0711 9.92893C37.1957 8.05357 34.6522 7 32 7C29.3478 7 26.8043 8.05357 24.9289 9.92893C23.0536 11.8043 22 14.3478 22 17C22 19.6522 23.0536 22.1957 24.9289 24.0711C26.8043 25.9464 29.3478 27 32 27ZM15.75 34.5C17.4076 34.5 18.9973 33.8415 20.1694 32.6694C21.3415 31.4973 22 29.9076 22 28.25C22 26.5924 21.3415 25.0027 20.1694 23.8306C18.9973 22.6585 17.4076 22 15.75 22C14.0924 22 12.5027 22.6585 11.3306 23.8306C10.1585 25.0027 9.5 26.5924 9.5 28.25C9.5 29.9076 10.1585 31.4973 11.3306 32.6694C12.5027 33.8415 14.0924 34.5 15.75 34.5ZM54.5 28.25C54.5 29.9076 53.8415 31.4973 52.6694 32.6694C51.4973 33.8415 49.9076 34.5 48.25 34.5C46.5924 34.5 45.0027 33.8415 43.8306 32.6694C42.6585 31.4973 42 29.9076 42 28.25C42 26.5924 42.6585 25.0027 43.8306 23.8306C45.0027 22.6585 46.5924 22 48.25 22C49.9076 22 51.4973 22.6585 52.6694 23.8306C53.8415 25.0027 54.5 26.5924 54.5 28.25ZM32 29.5C35.3152 29.5 38.4946 30.817 40.8388 33.1612C43.183 35.5054 44.5 38.6848 44.5 42V56C44.5 56.5523 44.0523 57 43.5 57H20.5C19.9477 57 19.5 56.5523 19.5 56V42C19.5 38.6848 20.817 35.5054 23.1612 33.1612C25.5054 30.817 28.6848 29.5 32 29.5ZM14.5 42C14.5 40.4167 14.7088 38.8835 15.1035 37.4252C15.1571 37.2272 14.9994 37.0332 14.795 37.05C12.6522 37.2853 10.6717 38.3033 9.23316 39.9088C7.79465 41.5143 6.99944 43.5943 7 45.75V56C7 56.5523 7.44772 57 8 57H13.5C14.0523 57 14.5 56.5523 14.5 56V42ZM56 57C56.5523 57 57 56.5523 57 56V45.75C57.0003 43.5209 56.1498 41.3758 54.6222 39.7524C53.4228 38.4779 51.8769 37.6005 50.1911 37.2169C49.5146 37.063 48.9867 37.7192 49.1287 38.3983C49.3717 39.5605 49.5 40.765 49.5 42V56C49.5 56.5523 49.9477 57 50.5 57H56Z" fill="#969BC8"/>
</svg>
