<svg width="24" height="24" viewBox="0 0 24 24" fill="none" xmlns="http://www.w3.org/2000/svg">
<g clip-path="url(#clip0_114_1498)">
<path d="M12.0002 1.33325C9.8905 1.33325 7.82821 1.95884 6.07408 3.13091C4.31996 4.30298 2.95279 5.96888 2.14545 7.91796C1.33812 9.86704 1.12688 12.0118 1.53846 14.0809C1.95003 16.15 2.96594 18.0506 4.4577 19.5424C5.94946 21.0342 7.85007 22.0501 9.9192 22.4616C11.9883 22.8732 14.133 22.662 16.0821 21.8546C18.0312 21.0473 19.6971 19.6801 20.8692 17.926C22.0412 16.1719 22.6668 14.1096 22.6668 11.9999C22.6668 9.17094 21.543 6.45783 19.5426 4.45745C17.5423 2.45706 14.8291 1.33325 12.0002 1.33325ZM12.0002 21.3333C10.1542 21.3333 8.3497 20.7859 6.81485 19.7603C5.27999 18.7347 4.08371 17.2771 3.37729 15.5716C2.67087 13.8662 2.48604 11.9896 2.84617 10.1791C3.2063 8.36859 4.09521 6.70554 5.4005 5.40025C6.70579 4.09496 8.36884 3.20605 10.1793 2.84592C11.9898 2.48579 13.8664 2.67063 15.5719 3.37704C17.2773 4.08346 18.735 5.27974 19.7605 6.8146C20.7861 8.34945 21.3335 10.154 21.3335 11.9999C21.3335 14.4753 20.3502 16.8492 18.5998 18.5996C16.8495 20.3499 14.4755 21.3333 12.0002 21.3333Z" fill="#3D7543"/>
<path d="M18.6665 8.06667C18.5416 7.9425 18.3726 7.8728 18.1965 7.8728C18.0203 7.8728 17.8514 7.9425 17.7265 8.06667L10.3265 15.4333L6.32646 11.4333C6.20446 11.3016 6.03513 11.2237 5.85572 11.2169C5.67631 11.21 5.50152 11.2747 5.36979 11.3967C5.23807 11.5187 5.16021 11.688 5.15333 11.8674C5.14645 12.0468 5.21113 12.2216 5.33313 12.3533L10.3265 17.3333L18.6665 9.01333C18.7289 8.95136 18.7785 8.87762 18.8124 8.79638C18.8462 8.71514 18.8637 8.62801 18.8637 8.54C18.8637 8.45199 18.8462 8.36485 18.8124 8.28361C18.7785 8.20237 18.7289 8.12864 18.6665 8.06667Z" fill="#3D7543"/>
</g>
<defs>
<clipPath id="clip0_114_1498">
<rect width="24" height="24" fill="white"/>
</clipPath>
</defs>
</svg>
