<svg width="25" height="24" viewBox="0 0 25 24" fill="none" xmlns="http://www.w3.org/2000/svg">
<path d="M13.3571 17.1429V10.2857H9.92857V12H11.6429V17.1429H9.07143V18.8571H15.9286V17.1429H13.3571ZM12.5 5.14286C12.2457 5.14286 11.9971 5.21826 11.7857 5.35954C11.5743 5.50081 11.4095 5.70162 11.3122 5.93655C11.2148 6.17148 11.1894 6.43 11.239 6.6794C11.2886 6.9288 11.4111 7.1579 11.5909 7.33771C11.7707 7.51752 11.9998 7.63997 12.2492 7.68958C12.4986 7.73919 12.7571 7.71373 12.992 7.61642C13.227 7.5191 13.4278 7.35431 13.569 7.14287C13.7103 6.93144 13.7857 6.68286 13.7857 6.42857C13.7857 6.08758 13.6503 5.76055 13.4091 5.51943C13.168 5.27831 12.841 5.14286 12.5 5.14286Z" fill="#957000"/>
<path d="M12.5 24C10.1266 24 7.80655 23.2962 5.83316 21.9776C3.85977 20.6591 2.3217 18.7849 1.41345 16.5922C0.505199 14.3995 0.267559 11.9867 0.730582 9.65892C1.1936 7.33115 2.33649 5.19295 4.01472 3.51472C5.69295 1.83649 7.83115 0.693605 10.1589 0.230582C12.4867 -0.232441 14.8995 0.00519943 17.0922 0.913451C19.2849 1.8217 21.1591 3.35977 22.4776 5.33316C23.7962 7.30655 24.5 9.62663 24.5 12C24.5 15.1826 23.2357 18.2348 20.9853 20.4853C18.7348 22.7357 15.6826 24 12.5 24ZM12.5 1.71429C10.4657 1.71429 8.47704 2.31754 6.78557 3.44775C5.09409 4.57795 3.77575 6.18436 2.99724 8.06383C2.21874 9.9433 2.01505 12.0114 2.41193 14.0066C2.8088 16.0019 3.78842 17.8346 5.22691 19.2731C6.66539 20.7116 8.49813 21.6912 10.4934 22.0881C12.4886 22.485 14.5567 22.2813 16.4362 21.5028C18.3156 20.7243 19.9221 19.4059 21.0523 17.7144C22.1825 16.023 22.7857 14.0343 22.7857 12C22.7857 9.27206 21.702 6.65585 19.7731 4.72691C17.8442 2.79796 15.2279 1.71429 12.5 1.71429Z" fill="#957000"/>
</svg>
